<?xml version="1.0" encoding="UTF-8" standalone="no"?>
<!-- Created with Inkscape (http://www.inkscape.org/) -->

<svg
   width="17.311905mm"
   height="17.240076mm"
   viewBox="0 0 17.311905 17.240076"
   version="1.1"
   id="svg1"
   xmlns="http://www.w3.org/2000/svg"
   xmlns:svg="http://www.w3.org/2000/svg">
  <defs
     id="defs1" />
  <g
     id="layer1"
     style="display:inline"
     transform="translate(-59.933609,-38.379644)">
    <g
       id="g2">
      <path
         d="m 65.999121,48.892994 c 0.387185,-0.46687 0.893467,-0.885898 1.59687,-1.214207 0.983194,-0.458899 2.808573,-0.878065 4.255155,2.071474 0.05409,0.110286 -0.252013,-0.585311 -0.745755,-1.185641 -0.445299,-0.541429 -0.950356,-0.934715 -1.34589,-1.015428 -0.899264,-0.19975 -1.876602,0.171015 -2.338462,0.495904 -0.701014,0.493119 -1.315983,1.28041 -1.359757,1.324183 -0.215594,0.120116 -0.479086,-0.0539 -0.06216,-0.476285 z"
         id="text2-7"
         style="font-size:25.4px;font-family:Italianno;-inkscape-font-specification:'Italianno, Normal';text-align:center;letter-spacing:0px;word-spacing:0px;text-anchor:middle;fill:#033f00;stroke:#033f00;stroke-width:0.348;stroke-linecap:round;stroke-linejoin:round;stroke-miterlimit:0"
         aria-label="S" />
      <text
         xml:space="preserve"
         style="font-weight:bold;font-size:14.173px;font-family:Caveat;-inkscape-font-specification:'Caveat Bold';text-align:center;letter-spacing:0px;word-spacing:0px;writing-mode:lr-tb;direction:ltr;text-anchor:middle;display:inline;fill:#08b100;fill-opacity:1;stroke:#08b100;stroke-width:0.291273;stroke-linecap:round;stroke-linejoin:round;stroke-miterlimit:0;stroke-dasharray:none;stroke-opacity:1"
         x="64.45871"
         y="50.196796"
         id="text1"><tspan
           id="tspan1"
           style="font-style:normal;font-variant:normal;font-weight:normal;font-stretch:normal;font-size:21.2596px;font-family:Italianno;-inkscape-font-specification:'Italianno, Normal';font-variant-ligatures:normal;font-variant-caps:normal;font-variant-numeric:normal;font-variant-east-asian:normal;fill:#08b100;fill-opacity:1;stroke:#08b100;stroke-width:0.291273;stroke-dasharray:none;stroke-opacity:1"
           x="64.45871"
           y="50.196796">E</tspan></text>
      <path
         d="m 76.030115,42.745719 v -0.508 c 0,-0.3048 -0.118533,-0.541867 -0.3556,-0.7112 -0.491067,-0.4572 -1.143,-0.6858 -1.9558,-0.6858 -1.1176,0 -1.9304,0.389467 -2.4384,1.1684 -0.3048,0.4572 -0.4572,0.889 -0.4572,1.2954 0,0.389467 0.09313,0.8128 0.2794,1.27 0.2032,0.4572 0.753533,1.2446 1.651,2.3622 0.9144,1.1176 1.481667,1.964267 1.7018,2.54 0.220133,0.575733 0.3302,1.058333 0.3302,1.4478 0,1.083733 -0.440267,2.032 -1.3208,2.8448 -0.5588,0.524933 -1.2192,0.931333 -1.9812,1.2192 -0.745067,0.3048 -1.566333,0.4572 -2.4638,0.4572 -0.897467,0 -1.794933,-0.2286 -2.6924,-0.6858 -0.897467,-0.4572 -1.456267,-1.151467 -1.6764,-2.0828 -0.03387,-0.186267 -0.0508,-0.423333 -0.0508,-0.7112 0,-0.3048 0.09313,-0.719667 0.2794,-1.2446 0.2032,-0.524933 0.582095,-1.186169 0.906986,-1.565328 0.49083,-0.591846 1.301674,-1.025693 0.06216,0.476285 -0.321733,0.372534 -0.359547,0.89431 -0.359547,1.368443 0,0.626533 0.194733,1.227667 0.5842,1.8034 0.389467,0.541867 0.931333,0.9906 1.6256,1.3462 0.762,0.389467 1.5494,0.5842 2.3622,0.5842 1.202267,0 2.091267,-0.440267 2.667,-1.3208 0.321733,-0.524933 0.4826,-1.0668 0.4826,-1.6256 0,-0.575733 -0.1016,-1.143 -0.3048,-1.7018 -0.2032,-0.575733 -0.626533,-1.388533 -1.27,-2.4384 -0.626533,-1.0668 -0.973667,-1.659467 -1.0414,-1.778 -0.338667,-0.643467 -0.508,-1.278467 -0.508,-1.905 0,-0.643467 0.194733,-1.2446 0.5842,-1.8034 0.4064,-0.5588 0.922867,-0.999067 1.5494,-1.3208 0.694267,-0.3556 1.413933,-0.5334 2.159,-0.5334 1.049867,0 1.905,0.364067 2.5654,1.0922 0.08467,0.1524 0.127,0.372533 0.127,0.6604 0,0.270933 -0.05927,0.508 -0.1778,0.7112 -0.440267,0.643467 -0.719667,1.176867 -0.8382,1.6002 -0.237067,0.1524 -0.397933,0.1778 -0.4826,0.0762 0.3048,-0.6096 0.4572,-1.176867 0.457201,-1.7018 z"
         id="text2"
         style="font-size:25.4px;font-family:Italianno;-inkscape-font-specification:'Italianno, Normal';text-align:center;letter-spacing:0px;word-spacing:0px;text-anchor:middle;display:inline;fill:#033f00;stroke:#033f00;stroke-width:0.348;stroke-linecap:round;stroke-linejoin:round;stroke-miterlimit:0"
         aria-label="S" />
    </g>
  </g>
</svg>
